<?xml version="1.0" encoding="UTF-8" standalone="no"?>
<svg
   height="800"
   width="1200"
   viewBox="-150 -249.37925 1300 1496.2755"
   version="1.1"
   id="svg3"
   sodipodi:docname="American_Express-Logo.wine.svg"
   inkscape:version="1.4.2 (f4327f4, 2025-05-13)"
   xmlns:inkscape="http://www.inkscape.org/namespaces/inkscape"
   xmlns:sodipodi="http://sodipodi.sourceforge.net/DTD/sodipodi-0.dtd"
   xmlns="http://www.w3.org/2000/svg"
   xmlns:svg="http://www.w3.org/2000/svg">
  <defs
     id="defs3" />
  <sodipodi:namedview
     id="namedview3"
     pagecolor="#505050"
     bordercolor="#eeeeee"
     borderopacity="1"
     inkscape:showpageshadow="0"
     inkscape:pageopacity="0"
     inkscape:pagecheckerboard="0"
     inkscape:deskcolor="#505050"
     inkscape:zoom="0.75572037"
     inkscape:cx="847.53571"
     inkscape:cy="409.54302"
     inkscape:window-width="1920"
     inkscape:window-height="1057"
     inkscape:window-x="-8"
     inkscape:window-y="-8"
     inkscape:window-maximized="1"
     inkscape:current-layer="svg3" />
  <path
     d="M 6.921106e-4,0.00121767 V 420.45244 L 37.392968,333.27686 h 64.669352 l 21.22037,48.83352 v -48.83352 h 80.38462 l 12.63579,35.29544 12.24491,-35.29544 h 360.85957 v 17.7427 c 0,0 18.96895,-17.7427 50.14495,-17.7427 l 117.08648,0.40914 20.85142,48.19424 v -48.60338 h 67.27395 l 18.51714,27.68256 v -27.68256 h 67.88765 v 156.60846 h -67.88765 l -17.74636,-27.77388 v 27.77388 h -98.83601 l -9.93985,-24.68708 h -26.57204 l -9.77913,24.68708 h -67.02554 c -26.826,0 -43.97501,-17.38105 -43.97501,-17.38105 v 17.38105 H 488.34322 l -20.05871,-24.68708 v 24.68708 H 92.480454 L 82.547903,465.19824 H 56.059881 L 46.20039,489.88532 H 6.921106e-4 V 997.51578 H 997.51526 V 684.29885 c 0,0 -15.73883,10.64497 -33.94383,10.80197 H 630.29579 l -20.05872,-24.68708 v 24.68708 h -65.72872 v -42.14119 c 0,0 -8.98024,5.88135 -28.39124,5.88135 h -22.37473 v 36.25984 h -99.51912 l -17.76462,-23.68981 -18.03859,23.68981 H 193.63978 V 538.48871 h 165.82137 l 17.79019,23.193 18.37833,-23.193 H 997.51526 V 0.00121767 Z"
     style="display:inline;fill:#999999"
     id="path20" />
  <path
     id="path30"
     style="display:inline;fill:#ffffff"
     d="M 37.392968 333.27686 L 0.0006921106 420.45244 L 0.0006921106 489.88532 L 46.20039 489.88532 L 56.059881 465.19824 L 82.547903 465.19824 L 92.480454 489.88532 L 468.28451 489.88532 L 468.28451 465.19824 L 488.34322 489.88532 L 589.40758 489.88532 L 589.40758 472.50427 C 589.40758 472.50427 606.55659 489.88532 633.38259 489.88532 L 700.40813 489.88532 L 710.18726 465.19824 L 736.7593 465.19824 L 746.69915 489.88532 L 845.53516 489.88532 L 845.53516 462.11144 L 863.28152 489.88532 L 931.16917 489.88532 L 931.16917 333.27686 L 863.28152 333.27686 L 863.28152 360.95942 L 844.76438 333.27686 L 777.49043 333.27686 L 777.49043 381.88024 L 756.63901 333.686 L 639.55253 333.27686 C 608.37653 333.27686 589.40758 351.01956 589.40758 351.01956 L 589.40758 333.27686 L 228.54801 333.27686 L 216.3031 368.5723 L 203.66731 333.27686 L 123.28269 333.27686 L 123.28269 382.11038 L 102.06232 333.27686 L 37.392968 333.27686 z M 142.72404 352.56479 L 189.38402 352.73648 L 216.52228 428.34296 L 243.01395 352.56479 L 289.30132 352.56479 L 289.30132 469.82661 L 259.98587 469.82661 L 259.98587 383.42181 L 228.90966 469.82661 L 203.19973 469.82661 L 172.0395 383.42181 L 172.0395 469.82661 L 142.72404 469.82661 L 142.72404 352.56479 z M 309.36004 352.56479 L 405.02523 352.56479 L 405.02523 378.79344 L 338.986 378.79344 L 338.986 398.85216 L 403.48 398.85216 L 403.48 423.53924 L 338.986 423.53924 L 338.986 444.36874 L 405.02523 444.36874 L 405.02523 469.82661 L 309.36004 469.82661 L 309.36004 352.56479 z M 540.18683 352.56479 L 570.11965 352.56479 L 570.11965 469.82661 L 540.18683 469.82661 L 540.18683 352.56479 z M 642.63933 352.56479 L 675.04158 352.56479 L 675.04158 380.33867 L 641.45575 380.33867 C 625.42975 380.33867 614.09466 392.84348 614.09466 411.96648 C 614.09466 434.67648 627.05248 444.21531 645.72248 444.21531 L 653.43765 444.21531 L 641.0941 469.82661 L 634.63557 469.82661 C 603.37357 469.82661 584.39198 445.1979 584.39198 411.6779 C 584.39198 377.3289 603.16133 352.56479 642.63933 352.56479 z M 796.93178 352.56479 L 834.20351 352.56479 L 881.795 426.23882 L 881.795 352.56479 L 911.11046 352.56479 L 911.11046 469.82661 L 875.04423 469.82661 L 826.24724 394.22378 L 826.24724 469.82661 L 796.93178 469.82661 L 796.93178 352.56479 z M 50.627846 352.58305 L 88.863968 352.58305 L 139.25368 469.84853 L 105.69341 469.84853 L 96.436671 446.36694 L 42.335499 446.36694 L 33.027613 469.84853 L 0.19430198 469.84853 L 50.627846 352.58305 z M 421.99714 352.58305 L 487.23636 352.58305 C 508.85236 352.58305 528.21955 365.94956 528.21955 390.62556 C 528.21955 411.72056 511.8894 425.3083 496.0584 426.6443 L 534.6306 469.84853 L 498.80546 469.84853 L 463.65614 428.18953 L 451.3126 428.18953 L 451.3126 469.84853 L 421.99714 469.84853 L 421.99714 352.58305 z M 704.88673 352.58305 L 743.12285 352.58305 L 793.50891 469.84853 L 759.9523 469.84853 L 750.6919 446.36694 L 696.59438 446.36694 L 687.2865 469.84853 L 654.45318 469.84853 L 704.88673 352.58305 z M 451.3126 378.81536 L 451.3126 403.50245 L 485.25643 403.50245 C 491.13143 403.50245 498.71049 398.94525 498.71049 391.15525 C 498.71049 385.10025 492.86172 378.81536 484.82172 378.81536 L 451.3126 378.81536 z M 69.287453 379.87474 L 52.750248 420.90907 L 85.777169 420.90907 L 69.287453 379.87474 z M 723.54634 379.87474 L 707.00913 420.90907 L 740.03605 420.90907 L 723.54634 379.87474 z M 193.63978 538.48871 L 193.63978 695.10082 L 358.42005 695.10082 L 376.45864 671.41101 L 394.22326 695.10082 L 493.74238 695.10082 L 493.74238 658.84098 L 516.11711 658.84098 C 535.52811 658.84098 544.50835 652.95963 544.50835 652.95963 L 544.50835 695.10082 L 610.23707 695.10082 L 610.23707 670.41374 L 630.29579 695.10082 L 963.57143 695.10082 C 981.77643 694.94382 997.51526 684.29885 997.51526 684.29885 L 997.51526 652.59432 C 992.72037 665.77021 980.93612 675.03846 961.76319 675.03846 L 899.28565 675.03846 L 899.28565 649.58059 L 957.95309 649.58059 C 966.63509 649.58059 970.39526 644.89167 970.39526 639.74667 C 970.39526 634.81667 966.64709 629.83238 957.95309 629.83238 L 931.44315 629.83238 C 908.39715 629.83238 895.56322 615.79328 895.56322 594.71228 C 895.56322 575.90928 907.31601 557.77663 941.56201 557.77663 L 997.51526 557.77663 L 997.51526 538.48871 L 395.62967 538.48871 L 377.25134 561.68171 L 359.46115 538.48871 L 193.63978 538.48871 z M 997.51526 557.77663 L 997.51526 560.20589 L 998.65134 557.77663 L 997.51526 557.77663 z M 997.51526 560.20589 L 986.3078 584.16237 L 936.93363 584.16237 C 927.49563 584.16237 924.58644 589.11286 924.58644 593.84286 C 924.58644 598.70286 928.17741 604.064 935.38841 604.064 L 963.16229 604.064 C 981.94594 604.064 992.95335 611.8539 997.51526 623.5017 L 997.51526 560.20589 z M 213.6985 557.77663 L 309.36004 557.77663 L 309.36004 584.00529 L 243.32446 584.00529 L 243.32446 604.064 L 307.81846 604.064 L 307.81846 628.75109 L 243.32446 628.75109 L 243.32446 649.58059 L 309.36004 649.58059 L 309.36004 675.03846 L 213.6985 675.03846 L 213.6985 557.77663 z M 311.96464 557.77663 L 348.90028 557.77663 L 377.29883 594.46753 L 405.79601 557.77663 L 441.28507 557.77663 L 394.22326 616.40754 L 440.88689 675.03846 L 403.95855 675.03846 L 376.38558 638.92474 L 349.47746 675.03846 L 313.07515 675.03846 L 359.65111 617.13084 L 311.96464 557.77663 z M 563.9497 557.77663 L 629.18527 557.77663 C 650.80127 557.77663 670.16846 571.14314 670.16846 595.81914 C 670.16846 616.91414 653.84096 630.50189 638.01096 631.83789 L 676.58316 675.03846 L 640.75803 675.03846 L 605.6087 633.37946 L 593.26516 633.37946 L 593.26516 675.03846 L 563.9497 675.03846 L 563.9497 557.77663 z M 682.44625 557.77663 L 778.10779 557.77663 L 778.10779 584.00529 L 712.07221 584.00529 L 712.07221 604.064 L 776.25936 604.064 L 776.25936 628.75109 L 712.06856 628.75109 L 712.06856 649.58059 L 778.10779 649.58059 L 778.10779 675.03846 L 682.44625 675.03846 L 682.44625 557.77663 z M 833.96606 557.77663 L 891.05175 557.77663 L 878.70821 584.16237 L 829.33404 584.16237 C 819.89604 584.16237 816.99049 589.11286 816.99049 593.84286 C 816.99049 598.70286 820.58246 604.064 827.79246 604.064 L 855.56635 604.064 C 881.25635 604.064 892.40336 618.63624 892.40336 637.71924 C 892.40336 658.23624 879.98124 675.03846 854.16724 675.03846 L 791.68605 675.03846 L 791.68605 649.58059 L 850.35715 649.58059 C 859.03815 649.58059 862.79932 644.89167 862.79932 639.74667 C 862.79932 634.81667 859.05015 629.83238 850.35715 629.83238 L 823.84355 629.83238 C 800.79855 629.83238 787.96363 615.79328 787.96363 594.71228 C 787.96363 575.90928 799.71906 557.77663 833.96606 557.77663 z M 444.36821 557.7949 L 509.12523 557.7949 C 535.69623 557.7949 551.21894 574.91951 551.21894 597.23651 C 551.21894 624.17551 531.42614 638.02975 505.31514 638.02975 L 474.45811 638.02975 L 474.45811 675.06038 L 444.36821 675.06038 L 444.36821 557.7949 z M 593.26516 584.00529 L 593.26516 608.69237 L 627.20899 608.69237 C 633.08499 608.69237 640.66305 604.13883 640.66305 596.34883 C 640.66305 590.29283 634.81328 584.00529 626.77428 584.00529 L 593.26516 584.00529 z M 474.45811 584.3158 L 474.45811 611.31524 L 506.86036 611.31524 C 515.42236 611.31524 521.42129 605.64334 521.42129 597.81734 C 521.42129 589.48734 515.39134 584.3158 506.95534 584.3158 L 474.45811 584.3158 z M 997.51526 623.50536 L 997.51526 652.59067 C 999.17493 648.02811 999.99931 642.99573 999.99931 637.71924 C 999.99931 632.59086 999.19138 627.78689 997.51526 623.50536 z " />
</svg>
