<?xml version="1.0" encoding="UTF-8" standalone="no"?>
<svg
   version="1.0"
   width="288.000000pt"
   height="288.000000pt"
   viewBox="0 0 288.000000 288.000000"
   preserveAspectRatio="xMidYMid meet"
   id="svg2"
   sodipodi:docname="unnamed.svg"
   inkscape:version="1.4.2 (f4327f4, 2025-05-13)"
   xmlns:inkscape="http://www.inkscape.org/namespaces/inkscape"
   xmlns:sodipodi="http://sodipodi.sourceforge.net/DTD/sodipodi-0.dtd"
   xmlns:xlink="http://www.w3.org/1999/xlink"
   xmlns="http://www.w3.org/2000/svg"
   xmlns:svg="http://www.w3.org/2000/svg">
  <defs
     id="defs2">
    <linearGradient
       id="linearGradient2"
       inkscape:collect="always">
      <stop
         style="stop-color:#0f2739;stop-opacity:1;"
         offset="0"
         id="stop2" />
      <stop
         style="stop-color:#255074;stop-opacity:1;"
         offset="1"
         id="stop3" />
    </linearGradient>
    <linearGradient
       inkscape:collect="always"
       xlink:href="#linearGradient2"
       id="linearGradient3"
       x1="0"
       y1="1441.4885"
       x2="2874.127"
       y2="1441.4885"
       gradientUnits="userSpaceOnUse" />
  </defs>
  <sodipodi:namedview
     id="namedview2"
     pagecolor="#505050"
     bordercolor="#eeeeee"
     borderopacity="1"
     inkscape:showpageshadow="0"
     inkscape:pageopacity="0"
     inkscape:pagecheckerboard="0"
     inkscape:deskcolor="#505050"
     inkscape:document-units="pt"
     inkscape:zoom="1.5744174"
     inkscape:cx="150.21429"
     inkscape:cy="195.94549"
     inkscape:window-width="1920"
     inkscape:window-height="1057"
     inkscape:window-x="-8"
     inkscape:window-y="-8"
     inkscape:window-maximized="1"
     inkscape:current-layer="g2" />
  <g
     transform="translate(0.000000,288.000000) scale(0.100000,-0.100000)"
     fill="#000000"
     stroke="none"
     id="g2"
     style="fill:url(#linearGradient3)">
    <rect
       style="opacity:1;fill:#ffffff;stroke:#0e2738;stroke-width:0.75"
       id="rect3"
       width="184.35391"
       height="171.492"
       x="57.640366"
       y="58.11673"
       transform="matrix(9.9999998,0,0,-9.9999998,0,2880)" />
    <path
       d="M1265 2869 c-718 -88 -1265 -706 -1265 -1429 0 -453 213 -876 580 -1152 171 -128 359 -212 584 -260 132 -28 386 -30 523 -5 599 110 1061 571 1169 1167 24 127 24 372 1 498 -96 524 -470 957 -967 1118 -188 61 -438 86 -625 63z m955 -694 c0 -55 10 -57 86 -14 118 65 120 67 -566 -506 -740 -618 -1042 -867 -1046 -862 -1 1 -5 320 -9 709 l-7 708 344 3 c189 1 535 3 771 5 l427 2 0 -45z m103 -67 c-4 -7 -8 -24 -9 -38 0 -14 -56 -155 -124 -315 -67 -159 -157 -375 -200 -480 -44 -104 -99 -239 -124 -299 -25 -59 -46 -112 -46 -117 0 -5 54 -9 120 -9 l120 0 0 283 0 284 70 167 c38 92 74 174 78 183 10 17 22 -454 22 -839 l0 -248 -446 0 c-385 0 -445 2 -441 14 3 8 144 212 313 453 169 241 382 544 472 673 91 129 169 241 175 248 5 6 7 12 4 12 -5 0 -117 -139 -472 -589 -72 -90 -246 -309 -388 -487 l-257 -324 -205 0 c-113 0 -205 2 -205 3 0 2 55 55 123 117 109 102 212 197 502 469 49 47 122 114 160 150 39 36 104 97 145 136 73 68 228 213 480 448 114 106 155 138 133 105z"
       id="path1"
       style="fill:url(#linearGradient3)" />
    <path
       d="M854 1743 c4 -164 9 -300 12 -302 6 -6 1106 550 1159 586 16 11 -76 13 -579 13 l-599 0 7 -297z"
       id="path2"
       style="fill:url(#linearGradient3)" />
  </g>
</svg>
